<?xml version="1.0" encoding="UTF-8" standalone="no"?>
<!-- Uploaded to: SVG Repo, www.svgrepo.com, Generator: SVG Repo Mixer Tools -->

<svg
   width="734.18127"
   height="729.20001"
   viewBox="0 0 469.87602 466.68801"
   version="1.1"
   id="svg4"
   sodipodi:docname="CH_icon.svg"
   inkscape:export-filename="CH_icon.png"
   inkscape:export-xdpi="96"
   inkscape:export-ydpi="96"
   inkscape:version="1.2.2 (b0a8486541, 2022-12-01)"
   xmlns:inkscape="http://www.inkscape.org/namespaces/inkscape"
   xmlns:sodipodi="http://sodipodi.sourceforge.net/DTD/sodipodi-0.dtd"
   xmlns="http://www.w3.org/2000/svg"
   xmlns:svg="http://www.w3.org/2000/svg">
  <defs
     id="defs8" />
  <sodipodi:namedview
     id="namedview6"
     pagecolor="#ffffff"
     bordercolor="#999999"
     borderopacity="1"
     inkscape:pageshadow="0"
     inkscape:pageopacity="0"
     inkscape:pagecheckerboard="0"
     showgrid="false"
     inkscape:zoom="1.10875"
     inkscape:cx="453.66404"
     inkscape:cy="359.86471"
     inkscape:window-width="1920"
     inkscape:window-height="1037"
     inkscape:window-x="2560"
     inkscape:window-y="0"
     inkscape:window-maximized="1"
     inkscape:current-layer="svg4"
     inkscape:showpageshadow="2"
     inkscape:deskcolor="#d1d1d1" />
  <path
     fill="#000000"
     d="m 191.439,0.001 c -51.776,0 -98.754,12.252 -133.5,32.718 C 23.192,53.187 0,82.687 0,116.597 c 0,33.54 22.692,62.81 56.813,83.25 l -28.531,106.154 96.97,-79.844 c 20.65,4.58 42.924,7.063 66.186,7.063 51.776,0 98.786,-12.252 133.532,-32.72 34.746,-20.466 57.937,-49.997 57.937,-83.905 0,-33.908 -23.19,-63.41 -57.936,-83.875 C 290.225,12.253 243.215,0 191.441,0 Z m 0,18.687 c 48.8,0 92.866,11.77 124.03,30.126 31.165,18.357 48.75,42.447 48.75,67.78 0,25.338 -17.585,49.457 -48.75,67.814 -31.164,18.357 -75.23,30.125 -124.03,30.125 -48.8,0 -92.868,-11.769 -124.033,-30.126 C 36.243,166.05 18.688,141.931 18.688,116.594 18.688,91.258 36.243,67.17 67.408,48.814 98.571,30.457 142.636,18.687 191.436,18.687 Z M 76.656,68.845 v 18.688 h 93.126 V 68.844 H 76.656 Z m 111.814,0 v 18.688 h 28.094 V 68.844 H 188.47 Z m 46.78,0 v 18.688 h 71.97 V 68.844 H 235.25 Z M 76.658,108.751 v 18.72 h 29.657 v -18.72 H 76.656 Z m 48.345,0 v 18.72 h 65.938 v -18.72 z m 84.656,0 v 18.72 h 38.095 v -18.72 h -38.098 z m 56.782,0 v 18.72 h 40.782 v -18.72 h -40.78 z M 76.658,145.687 v 18.69 h 70.874 v -18.69 H 76.656 Z m 89.562,0 v 18.69 h 57.03 v -18.69 z m 75.72,0 -0.002,18.69 h 65.282 v -18.69 z m 92.342,90.25 c -74.88,0 -135.594,41.762 -135.594,93.283 0,51.52 60.716,93.28 135.594,93.28 18.23,0 35.623,-2.48 51.5,-6.968 l 68.53,51.156 -24.873,-71.03 c 24.947,-16.918 40.437,-40.432 40.437,-66.438 0,-51.518 -60.714,-93.28 -135.594,-93.28 z m -70.344,42.345 h 32.907 v 18.688 h -32.909 v -18.688 z m 51.594,0 h 90.344 v 18.688 h -90.344 z m -78.97,41.75 h 78.314 v 18.688 h -78.313 v -18.688 z m 97.002,0 h 20.968 v 18.688 h -20.97 z m 39.656,0 h 51 v 18.688 h -51 z m -109.28,39 H 343 v 18.688 h -79.062 v -18.688 z m 97.748,0 h 44.188 v 18.688 h -44.188 z"
     id="path2"
     style="fill:#888888;fill-opacity:1"
     inkscape:export-filename="/home/chris/ownCloud/Private/pnp/DSAprobes/res/CH_icon.png"
     inkscape:export-xdpi="96"
     inkscape:export-ydpi="96" />
</svg>
