<?xml version="1.0" encoding="UTF-8" standalone="no"?>
<!-- Uploaded to: SVG Repo, www.svgrepo.com, Generator: SVG Repo Mixer Tools -->

<svg
   fill="#000000"
   height="623.94623"
   width="830.00183"
   version="1.1"
   id="Capa_1"
   viewBox="0 0 475.894 357.74893"
   xml:space="preserve"
   sodipodi:docname="FF_icon.svg"
   inkscape:version="1.2.2 (b0a8486541, 2022-12-01)"
   inkscape:export-filename="FF_icon.png"
   inkscape:export-xdpi="96"
   inkscape:export-ydpi="96"
   xmlns:inkscape="http://www.inkscape.org/namespaces/inkscape"
   xmlns:sodipodi="http://sodipodi.sourceforge.net/DTD/sodipodi-0.dtd"
   xmlns="http://www.w3.org/2000/svg"
   xmlns:svg="http://www.w3.org/2000/svg"><defs
   id="defs7" /><sodipodi:namedview
   id="namedview5"
   pagecolor="#ffffff"
   bordercolor="#999999"
   borderopacity="1"
   inkscape:pageshadow="0"
   inkscape:pageopacity="0"
   inkscape:pagecheckerboard="0"
   showgrid="false"
   inkscape:zoom="1.10875"
   inkscape:cx="323.78805"
   inkscape:cy="279.59414"
   inkscape:window-width="1920"
   inkscape:window-height="1037"
   inkscape:window-x="2560"
   inkscape:window-y="0"
   inkscape:window-maximized="1"
   inkscape:current-layer="Capa_1"
   inkscape:showpageshadow="2"
   inkscape:deskcolor="#d1d1d1" />
<path
   d="m 434.6975,9.2484186 c -28.665,14.2660004 -60.737,22.0510004 -92.751,22.5150004 l -105.971,1.536 c -10.774,0.155 -21.258,3.322 -30.319,9.159 L 121.44351,96.70942 c -0.305,0.196 -0.593,0.417 -0.861,0.662 -9.551,8.712 -17.41301,18.973 -23.30301,30.298 l -52.092,34.488 c -9.525,6.315 -15.212,16.91 -15.212,28.34 0,2.142 0.208,4.263 0.605,6.347 l -6.761,4.477 c -9.53,6.303 -15.2189999,16.895 -15.2189999,28.331 0,6.677 1.9559999,13.155 5.6499999,18.728 5.003,7.568 12.658,12.732 21.552,14.542 7.544,1.534 15.206,0.489 21.972,-2.919 l -0.533,1.901 c -2.72,10.012 -1.081,20.765 4.493,29.511 5.574,8.746 14.633,14.773 24.854,16.535 12.451,2.146 24.89001,-2.355 33.20601,-11.189 5.138,29.711 31.081,52.387 62.23799,52.387 29.456,0 54.263,-20.263 61.226,-47.581 0.266,0.254 0.531,0.508 0.807,0.753 12.854,11.425 32.157,10.566 43.945,-1.954 l 47.12,-50.043 c 18.988,-20.167 33.156,-44.57 41.448,-70.883 l 86.333,-29.778 c 2.692,-0.929 4.382,-3.448 4.382,-6.145 0,-0.702 -0.115,-1.418 -0.357,-2.119 -1.17,-3.394 -4.87,-5.196 -8.264,-4.025 l -78.023,26.911 c 1.528,-6.838 2.674,-13.768 3.402,-20.757 0.374,-3.576 -2.22,-6.768 -5.792,-7.139 -3.57,-0.372 -6.767,2.221 -7.138,5.791 -3.849,36.946 -19.992,72.188 -45.456,99.23 l -47.12,50.043 c -6.933,7.363 -18.285,7.868 -25.844,1.148 -7.187,-6.389 -8.271,-17.398 -2.474,-25.065 l 30.112,-39.825 c 11.948,-15.802 12.156,-37.189 0.519,-53.22 -0.031,-0.043 -0.063,-0.086 -0.096,-0.129 l -18.354,-24.015 c -9.718,-12.715 -26.844,-17.347 -41.648,-11.264 l -69.92099,28.735 c -1.821,0.748 -3.205,2.281 -3.763,4.17 l -32.126,108.734 c -4.245,10.253 -15.19601,16.307 -26.15301,14.418 -6.718,-1.158 -12.436,-4.963 -16.1,-10.711 -3.664,-5.75 -4.698,-12.541 -2.925,-19.065 l 31.542,-112.488 c 4.75501,-17.508 14.30601,-33.243 27.63401,-45.538 l 83.74699,-53.95 c 7.013,-4.518 15.127,-6.970001 23.467,-7.090001 l 105.972,-1.536 c 33.948,-0.491 67.958,-8.747 98.354,-23.874 2.284,-1.137 3.605,-3.436 3.605,-5.824 0,-0.973 -0.219,-1.961 -0.682,-2.892 -1.599,-3.2140004 -5.5,-4.5230004 -8.714,-2.9230004 z M 182.0315,336.14842 c -27.66799,0 -50.17899,-22.51 -50.17899,-50.179 0,-27.669 22.51,-50.179 50.17899,-50.179 27.669,0 50.179,22.51 50.179,50.179 0,27.669 -22.511,50.179 -50.179,50.179 z m 87.938,-116.276 -30.112,39.825 c -0.083,0.11 -0.159,0.224 -0.241,0.335 -9.919,-21.933 -31.991,-37.241 -57.586,-37.241 -15.569,0 -29.82999,5.672 -40.85399,15.042 l 11.067,-37.459 32.46499,-12.651 c 25.163,-9.799 52.377,-11.842 78.697,-5.907 l 7.915,1.791 c 7.22,11.181 6.762,25.533 -1.351,36.265 z m -44.268,-68.764 c 9.376,-3.853 20.223,-0.919 26.377,7.135 l 7.28,9.525 c -26.686,-4.708 -53.979,-2.045 -79.368,7.842 l -23.08699,8.996 1.757,-5.947 z m -171.567,96.013 c -4.664,3.091 -10.253,4.178 -15.741,3.062 -5.489,-1.116 -10.212,-4.303 -13.304,-8.979 -2.283,-3.443 -3.49,-7.438 -3.49,-11.551 0,-7.062 3.51,-13.6 9.396,-17.492 l 49.358,-32.683 -17.315,61.751 z m 31.588,-86.79 -42.65,28.241 c 0.576,-6.311 3.954,-12.037 9.295,-15.578 l 36.606,-24.235 c -0.061,0.22 -0.131,0.437 -0.191,0.657 z"
   id="path2"
   style="fill:#f5b700;fill-opacity:1;stroke:#f5b700;stroke-width:17.20095003;stroke-miterlimit:4;stroke-dasharray:none;stroke-opacity:1"
   inkscape:export-filename="/home/chris/ownCloud/Private/pnp/DSAprobes/res/FF_icon.png"
   inkscape:export-xdpi="96"
   inkscape:export-ydpi="96" />
</svg>
