<?xml version="1.0" encoding="UTF-8" standalone="no"?>
<!-- Uploaded to: SVG Repo, www.svgrepo.com, Generator: SVG Repo Mixer Tools -->

<svg
   fill="#000000"
   height="800px"
   width="800px"
   version="1.1"
   id="Layer_1"
   viewBox="0 0 511.999 511.999"
   xml:space="preserve"
   sodipodi:docname="GE_icon.svg"
   inkscape:version="1.2.2 (b0a8486541, 2022-12-01)"
   inkscape:export-filename="GE_icon.png"
   inkscape:export-xdpi="96"
   inkscape:export-ydpi="96"
   xmlns:inkscape="http://www.inkscape.org/namespaces/inkscape"
   xmlns:sodipodi="http://sodipodi.sourceforge.net/DTD/sodipodi-0.dtd"
   xmlns="http://www.w3.org/2000/svg"
   xmlns:svg="http://www.w3.org/2000/svg"><defs
   id="defs1696" /><sodipodi:namedview
   id="namedview1694"
   pagecolor="#ffffff"
   bordercolor="#000000"
   borderopacity="0.25"
   inkscape:showpageshadow="2"
   inkscape:pageopacity="0.0"
   inkscape:pagecheckerboard="0"
   inkscape:deskcolor="#d1d1d1"
   showgrid="false"
   inkscape:zoom="1.28375"
   inkscape:cx="307.69231"
   inkscape:cy="434.66407"
   inkscape:window-width="2560"
   inkscape:window-height="1357"
   inkscape:window-x="0"
   inkscape:window-y="0"
   inkscape:window-maximized="1"
   inkscape:current-layer="Layer_1" />
<g
   id="g1673"
   style="fill:#209aac;fill-opacity:1">
	<g
   id="g1671"
   style="fill:#209aac;fill-opacity:1">
		<circle
   cx="245.739"
   cy="50.273"
   r="50.273"
   id="circle1669"
   style="fill:#209aac;fill-opacity:1" />
	</g>
</g>
<g
   id="g1679"
   style="fill:#209aac;fill-opacity:1">
	<g
   id="g1677"
   style="fill:#209aac;fill-opacity:1">
		<path
   d="M414.355,358.176c0,0.025,0,0.052,0,0.076C414.399,358.202,414.389,358.182,414.355,358.176z"
   id="path1675"
   style="fill:#209aac;fill-opacity:1" />
	</g>
</g>
<g
   id="g1685"
   style="fill:#209aac;fill-opacity:1">
	<g
   id="g1683"
   style="fill:#209aac;fill-opacity:1">
		<path
   d="M431.475,319.082c-3.825-6.507-10.307-10.603-17.119-11.711c0,12.149,0,38.859,0,50.013l8.455-4.928    C434.418,345.633,438.298,330.69,431.475,319.082z"
   id="path1681"
   style="fill:#209aac;fill-opacity:1" />
	</g>
</g>
<g
   id="g1691"
   style="fill:#209aac;fill-opacity:1">
	<g
   id="g1689"
   style="fill:#209aac;fill-opacity:1">
		<path
   d="M416.657,195.684c-1.697-11.219-12.206-18.703-23.129-17.05c-4.023,0.608-42.798,6.475-49.716,7.522l-43.773-61.101    c-3.815-5.325-9.965-8.485-16.516-8.485c-8.263,0-64.738,0-74.04,0c-5.784,0-11.295,2.465-15.149,6.777l-51.42,57.53    c-16.654,0.884-30.06,1.595-46.516,2.469c-11.41,0.605-19.792,10.439-19.212,21.366c0.565,10.642,9.367,19.161,20.132,19.234    V363.34c0,81.971,66.688,148.659,148.659,148.659s148.659-66.688,148.659-148.659V219.564l4.973-0.752    C410.759,217.125,418.316,206.645,416.657,195.684z M373.398,363.341h-0.001c0,70.261-57.161,127.422-127.421,127.422    c-70.261,0-127.422-57.161-127.422-127.422V222.863c18.819-0.999,26.439-1.403,34.954-1.855c5.402-0.287,10.466-2.716,14.072-6.75    l24.575-27.495v96.263c-0.297,1.556,0.52-5.473-11.832,106.473c-1.712,15.508,11.426,28.648,26.948,26.904l57.966-6.492    c-1.393-3.291-0.344-0.189-14.682-47.424l-18.421,2.063l5.89-53.269h19.064l26.706,87.973    c4.582,15.094,22.099,21.922,35.685,13.937l29.101-17.106c3.305-10.33,5.095-21.333,5.095-32.746v-26.813l-32.214,18.938    l-21.686-71.437c0-10.129,0-81.716,0-89.564l18.253,25.478c4.459,6.224,12.019,9.396,19.557,8.256    c14.068-2.129,22.47-3.4,35.813-5.419V363.341z"
   id="path1687"
   style="fill:#209aac;fill-opacity:1" />
	</g>
</g>
</svg>
