<?xml version="1.0" encoding="UTF-8" standalone="no"?>
<!-- Uploaded to: SVG Repo, www.svgrepo.com, Generator: SVG Repo Mixer Tools -->

<svg
   width="756.66669"
   height="663.53601"
   viewBox="0 0 22.700001 19.90608"
   fill="none"
   version="1.1"
   id="svg4155"
   sodipodi:docname="heart-angle-svgrepo-com.svg"
   inkscape:version="1.2.2 (b0a8486541, 2022-12-01)"
   inkscape:export-filename="MU_icon.png"
   inkscape:export-xdpi="96"
   inkscape:export-ydpi="96"
   xmlns:inkscape="http://www.inkscape.org/namespaces/inkscape"
   xmlns:sodipodi="http://sodipodi.sourceforge.net/DTD/sodipodi-0.dtd"
   xmlns="http://www.w3.org/2000/svg"
   xmlns:svg="http://www.w3.org/2000/svg">
  <defs
     id="defs4159" />
  <sodipodi:namedview
     id="namedview4157"
     pagecolor="#ffffff"
     bordercolor="#000000"
     borderopacity="0.25"
     inkscape:showpageshadow="2"
     inkscape:pageopacity="0.0"
     inkscape:pagecheckerboard="0"
     inkscape:deskcolor="#d1d1d1"
     showgrid="false"
     inkscape:zoom="1.28375"
     inkscape:cx="285.88121"
     inkscape:cy="334.95618"
     inkscape:window-width="2560"
     inkscape:window-height="1357"
     inkscape:window-x="0"
     inkscape:window-y="0"
     inkscape:window-maximized="1"
     inkscape:current-layer="svg4155" />
  <path
     d="m 11.35,3.5567095 -0.5404,0.5201 c 0.0034,0.00348 0.0068,0.00692 0.0102,0.01033 z M 8.31173,16.96698 l -0.46431,0.589 z m 6.07657,0 -0.4643,-0.589 z m -8.03769,-2.49 c -0.31983,-0.2632 -0.79248,-0.2173 -1.0557,0.1025 -0.26322,0.3198 -0.21733,0.7925 0.1025,1.0557 z m -4.65862,-3.0094 c 0.19875,0.3634 0.65448,0.4969 1.01789,0.2981 0.36342,-0.1988 0.49689,-0.6545 0.29813,-1.0179 z M 12.8198,6.0864195 c 0.2929,0.29284 0.7678,0.29275 1.0606,-2e-4 0.2929,-0.29294 0.2928,-0.76782 -2e-4,-1.06066 z M 2.1,7.1931795 c 0,-2.15087 1.21537,-3.95458 2.87436,-4.71291 1.61171,-0.73671 3.7773,-0.54161 5.83524,1.59654 l 1.0808,-1.0402 C 9.4485,0.49959951 6.61409,0.08146951 4.35076,1.1160395 c -2.21605,1.01296 -3.75075998,3.36507 -3.75075998,6.07714 z M 7.84742,17.55598 c 0.51223,0.4038 1.06213,0.8344 1.61938,1.16 0.5571,0.3255 1.1928,0.5901 1.8832,0.5901 v -1.5 c -0.3096,0 -0.6739,-0.1207 -1.1264,-0.3852 -0.4523,-0.2643 -0.92152,-0.6282 -1.44755,-1.0429 z m 7.00518,0 c 1.4266,-1.1247 3.2502,-2.4133 4.6807,-4.0241 C 20.9895,11.89218 22.1,9.8586795 22.1,7.1931795 h -1.5 c 0,2.1974 -0.8992,3.8911005 -2.1883,5.3427005 -1.3148,1.4805 -2.9721,2.6473 -4.4877,3.8421 z M 22.1,7.1931795 c 0,-2.71207 -1.5347,-5.06418 -3.7508,-6.07714 -2.2633,-1.03456999 -5.0977,-0.61643999 -7.5396,1.92057 l 1.0808,1.0402 c 2.0579,-2.13815 4.2235,-2.33325 5.8352,-1.59654 1.659,0.75833 2.8744,2.56204 2.8744,4.71291 z M 13.924,16.37798 c -0.5261,0.4147 -0.9953,0.7786 -1.4476,1.0429 -0.4525,0.2645 -0.8168,0.3852 -1.1264,0.3852 v 1.5 c 0.6904,0 1.3261,-0.2646 1.8832,-0.5901 0.5573,-0.3256 1.1071,-0.7562 1.6194,-1.16 z m -5.14795,0 c -0.79591,-0.6274 -1.18476,-0.8656 -2.00544,-1.541 l -0.8332,1.231462 c 0.83027,0.6833 1.16731,0.902038 1.91001,1.487538 z M 2.70801,10.20778 C 2.2603832,9.2646875 2.1,8.5593795 2.1,7.1931795 H 0.60000002 c 0,1.6375 0.3672819,2.9013055 0.73198998,3.6144005 z m 8.11179,-6.1206405 1.58,1.57928 1.0004,-1.12086 -1.52,-1.51927 z"
     fill="#1c274c"
     id="path4153"
     style="fill:#c80421;fill-opacity:1;stroke:#c80421;stroke-width:1.2;stroke-linecap:round;stroke-dasharray:none;stroke-opacity:1"
     sodipodi:nodetypes="cccccccccccscccccccccccccccccccccccccccccccccccscccccccccccccccccccccccc" />
</svg>
