<?xml version="1.0" encoding="UTF-8" standalone="no"?>
<!-- Uploaded to: SVG Repo, www.svgrepo.com, Generator: SVG Repo Mixer Tools -->

<svg
   fill="#000000"
   width="830.02948"
   height="533.15564"
   viewBox="0 -2.96 16.526924 10.615795"
   id="eye-16px"
   version="1.1"
   sodipodi:docname="IN_icon.svg"
   inkscape:version="1.2.2 (b0a8486541, 2022-12-01)"
   inkscape:export-filename="IN_icon.png"
   inkscape:export-xdpi="96"
   inkscape:export-ydpi="96"
   xmlns:inkscape="http://www.inkscape.org/namespaces/inkscape"
   xmlns:sodipodi="http://sodipodi.sourceforge.net/DTD/sodipodi-0.dtd"
   xmlns="http://www.w3.org/2000/svg"
   xmlns:svg="http://www.w3.org/2000/svg">
  <defs
     id="defs6" />
  <sodipodi:namedview
     id="namedview4"
     pagecolor="#ffffff"
     bordercolor="#000000"
     borderopacity="0.25"
     inkscape:showpageshadow="2"
     inkscape:pageopacity="0.0"
     inkscape:pagecheckerboard="0"
     inkscape:deskcolor="#d1d1d1"
     showgrid="false"
     inkscape:zoom="1.28375"
     inkscape:cx="322.4927"
     inkscape:cy="266.40701"
     inkscape:window-width="2560"
     inkscape:window-height="1357"
     inkscape:window-x="0"
     inkscape:window-y="0"
     inkscape:window-maximized="1"
     inkscape:current-layer="eye-16px" />
  <path
     id="Path_112"
     data-name="Path 112"
     d="m 15.495462,0.57989744 -0.416,-0.416 a 9.609,9.609 0 0 0 -6.8159997,-2.82300004 9.609,9.609 0 0 0 -6.816,2.82300004 l -0.416,0.416 a 2.5,2.5 0 0 0 0,3.53599996 l 0.416,0.416 a 9.609,9.609 0 0 0 6.816,2.823 9.609,9.609 0 0 0 6.8159997,-2.823 l 0.416,-0.416 a 2.5,2.5 0 0 0 0,-3.53599996 z M 8.2634623,-1.6521026 a 0.5,0.5 0 0 1 0.5,0.5 0.5,0.5 0 0 1 -0.5,0.50000004 2,2 0 0 0 -2,1.99999996 0.5,0.5 0 0 1 -0.5,0.5 0.5,0.5 0 0 1 -0.5,-0.5 3,3 0 0 1 3,-3 z m 6.5249997,5.061 -0.416,0.416 a 8.581,8.581 0 0 1 -6.1089997,2.53 8.581,8.581 0 0 1 -6.109,-2.53 l -0.416,-0.416 a 1.493,1.493 0 0 1 -0.439,-1.061 1.493,1.493 0 0 1 0.439,-1.061 l 0.416,-0.41599996 a 8.624,8.624 0 0 1 2.926,-1.92300004 3.964,3.964 0 0 0 -0.817,2.4 4,4 0 0 0 4,4 4,4 0 0 0 3.9999997,-4 3.964,3.964 0 0 0 -0.817,-2.4 8.624,8.624 0 0 1 2.926,1.92300004 l 0.416,0.41599996 a 1.493,1.493 0 0 1 0.439,1.061 1.493,1.493 0 0 1 -0.439,1.061 z"
     style="fill:#7fb685;fill-opacity:1;stroke:#7fb685;stroke-width:0.601778;stroke-dasharray:none;stroke-opacity:1" />
</svg>
