<?xml version="1.0" encoding="UTF-8" standalone="no"?>
<!-- Uploaded to: SVG Repo, www.svgrepo.com, Generator: SVG Repo Mixer Tools -->

<svg
   fill="#000000"
   version="1.1"
   id="Capa_1"
   width="807.65088"
   height="839.88422"
   viewBox="0 0 49.96835 51.962587"
   xml:space="preserve"
   sodipodi:docname="KK_icon.svg"
   inkscape:export-filename="KK_icon.png"
   inkscape:export-xdpi="96"
   inkscape:export-ydpi="96"
   inkscape:version="1.2.2 (b0a8486541, 2022-12-01)"
   xmlns:inkscape="http://www.inkscape.org/namespaces/inkscape"
   xmlns:sodipodi="http://sodipodi.sourceforge.net/DTD/sodipodi-0.dtd"
   xmlns="http://www.w3.org/2000/svg"
   xmlns:svg="http://www.w3.org/2000/svg"><defs
   id="defs13" /><sodipodi:namedview
   id="namedview11"
   pagecolor="#ffffff"
   bordercolor="#999999"
   borderopacity="1"
   inkscape:pageshadow="0"
   inkscape:pageopacity="0"
   inkscape:pagecheckerboard="0"
   showgrid="false"
   inkscape:zoom="1.10875"
   inkscape:cx="297.63247"
   inkscape:cy="476.21195"
   inkscape:window-width="2560"
   inkscape:window-height="1357"
   inkscape:window-x="0"
   inkscape:window-y="0"
   inkscape:window-maximized="1"
   inkscape:current-layer="Capa_1"
   inkscape:showpageshadow="2"
   inkscape:deskcolor="#d1d1d1" />
<g
   id="g8"
   style="fill:#000000;fill-opacity:1;stroke:#cc7000;stroke-width:2.47475;stroke-miterlimit:4;stroke-dasharray:none;stroke-opacity:1"
   transform="translate(0.23568431,1.2332116)">
	<g
   id="g6"
   style="fill:#000000;fill-opacity:1;stroke:#cc7000;stroke-width:2.47475;stroke-miterlimit:4;stroke-dasharray:none;stroke-opacity:1">
		<path
   d="m 1.434,28.084 c 1.527,0.188 3.644,0.847 3.644,1.587 0,0.207 0.128,0.393 0.321,0.467 0.189,0.073 0.412,0.021 0.551,-0.133 0.026,-0.027 2.688,-2.917 7.878,-2.917 5.405,0 8.5,2.556 8.5,3.25 0,0.241 0.172,0.447 0.408,0.491 0.24,0.044 0.471,-0.087 0.559,-0.312 0.019,-0.051 1.904,-4.85 4.922,-4.85 0.01,0 0.021,0 0.027,0 1.557,0.018 4.362,0.042 6.073,2.143 0.193,0.269 0.318,0.438 0.354,0.486 0.16,0.223 0.467,0.271 0.688,0.116 0.221,-0.155 0.281,-0.456 0.136,-0.686 -0.118,-0.184 -0.243,-0.354 -0.372,-0.518 -1.658,-2.314 -8.548,-12.151 -8.548,-15.794 0,-0.194 -0.112,-0.371 -0.288,-0.453 -0.175,-0.083 -0.382,-0.056 -0.531,0.068 C 25.698,11.076 20.02,15.717 15.607,12.07 15.555,12.014 14.333,10.691 15.141,9.633 15.235,9.51 15.265,9.351 15.226,9.201 15.187,9.051 15.08,8.929 14.937,8.868 14.929,8.865 14.125,8.514 13.875,7.775 13.711,7.292 13.813,6.72 14.179,6.075 15.535,3.683 17.88,1.644 17.958,1.569 17.97,1.555 19.144,0.228 21.84,1.685 c 0.351,0.189 0.768,0.409 1.236,0.656 3.612,1.901 10.334,5.439 12.925,9.109 0.548,0.773 1.248,1.658 2.062,2.682 3.635,4.578 9.113,11.486 9.43,19.683 -0.25,0.541 -1.715,3.412 -5.574,5.773 -3.948,2.418 -11.291,4.786 -23.824,2.332 -0.13,-0.025 -0.272,0.002 -0.385,0.082 -0.113,0.079 -0.187,0.2 -0.206,0.338 -0.006,0.039 -0.591,3.967 -2.71,6.318 -0.185,0.205 -0.168,0.521 0.037,0.706 0.096,0.086 0.216,0.128 0.335,0.128 0.137,0 0.272,-0.056 0.372,-0.166 1.867,-2.074 2.626,-5.123 2.865,-6.331 3.566,0.67 6.729,0.956 9.533,0.956 16.356,-10e-4 20.479,-9.74 20.523,-9.854 0.026,-0.064 0.038,-0.135 0.036,-0.203 C 48.219,25.316 42.578,18.211 38.849,13.509 38.043,12.497 37.353,11.622 36.824,10.871 34.095,7.005 27.232,3.394 23.546,1.454 23.081,1.209 22.667,0.991 22.318,0.803 18.921,-1.034 17.267,0.839 17.255,0.865 17.153,0.952 14.756,3.034 13.314,5.58 c -0.515,0.908 -0.643,1.758 -0.378,2.525 0.237,0.689 0.741,1.144 1.126,1.405 -0.558,1.27 0.255,2.644 0.868,3.285 4.082,3.376 8.941,0.736 10.749,-0.476 0.651,3.412 4.48,9.436 6.937,13.036 -1.628,-0.668 -3.354,-0.686 -4.443,-0.695 -2.725,-0.035 -4.565,2.925 -5.363,4.513 -1.268,-1.495 -4.704,-3.096 -8.974,-3.096 -4.277,0 -6.947,1.781 -8.048,2.708 C 4.884,27.556 2.189,27.158 1.563,27.081 1.295,27.046 1.041,27.242 1.006,27.518 0.965,27.799 1.16,28.05 1.434,28.084 Z"
   id="path2"
   style="fill:#000000;fill-opacity:1;stroke:#cc7000;stroke-width:2.47475;stroke-miterlimit:4;stroke-dasharray:none;stroke-opacity:1" />
		<path
   d="m 30.738,39.531 c 1.036,0 2.114,-0.15 3.146,-0.551 1.934,-0.75 3.356,-2.25 4.239,-4.457 0.104,-0.256 -0.021,-0.547 -0.276,-0.65 -0.256,-0.103 -0.547,0.021 -0.647,0.279 -0.771,1.938 -2.013,3.248 -3.671,3.895 -3.604,1.402 -8.104,-0.721 -8.146,-0.743 -0.25,-0.119 -0.549,-0.015 -0.668,0.233 -0.12,0.249 -0.016,0.547 0.233,0.667 0.145,0.071 2.791,1.327 5.79,1.327 z"
   id="path4"
   style="fill:#000000;fill-opacity:1;stroke:#cc7000;stroke-width:2.47475;stroke-miterlimit:4;stroke-dasharray:none;stroke-opacity:1" />
	</g>
</g>
</svg>
