<?xml version="1.0" encoding="UTF-8" standalone="no"?>
<!-- Uploaded to: SVG Repo, www.svgrepo.com, Generator: SVG Repo Mixer Tools -->

<svg
   width="716.35162"
   height="716.35162"
   viewBox="0 0 21.490549 21.490549"
   fill="none"
   version="1.1"
   id="svg6"
   sodipodi:docname="KO_icon2.svg"
   inkscape:export-filename="/home/chris/ownCloud/Private/pnp/DSAprobes/res/KO_icon.png"
   inkscape:export-xdpi="96"
   inkscape:export-ydpi="96"
   inkscape:version="1.1.2 (0a00cf5339, 2022-02-04)"
   xmlns:inkscape="http://www.inkscape.org/namespaces/inkscape"
   xmlns:sodipodi="http://sodipodi.sourceforge.net/DTD/sodipodi-0.dtd"
   xmlns="http://www.w3.org/2000/svg"
   xmlns:svg="http://www.w3.org/2000/svg">
  <defs
     id="defs10" />
  <sodipodi:namedview
     id="namedview8"
     pagecolor="#ffffff"
     bordercolor="#999999"
     borderopacity="1"
     inkscape:pageshadow="0"
     inkscape:pageopacity="0"
     inkscape:pagecheckerboard="0"
     showgrid="false"
     inkscape:zoom="1.10875"
     inkscape:cx="358.51184"
     inkscape:cy="358.51184"
     inkscape:window-width="2560"
     inkscape:window-height="1509"
     inkscape:window-x="0"
     inkscape:window-y="0"
     inkscape:window-maximized="1"
     inkscape:current-layer="svg6" />
  <path
     d="m 12.882683,1.4830727 c -0.7432,0.74323 -1.1282,2.03867 -0.8479,3.05191 0.1485,0.53633 0.1727,1.18571 -0.2208,1.5792 L 6.1141827,11.813983 c -0.39349,0.3935 -1.04287,0.3693 -1.5792,0.2208 -1.01324,-0.2803 -2.30868,0.1047 -3.05191,0.8479 -0.98371998,0.9838 -0.98371998,2.5787 0,3.5624 0.98373,0.9837 2.57867,0.9837 3.56239,0 -0.98372,0.9837 -0.98372,2.5787 0,3.5624 0.98373,0.9837 2.57866,0.9837 3.56239,0 0.74323,-0.7432 1.12823,-2.0387 0.84793,-3.0519 -0.1485,-0.5363 -0.1727,-1.1857 0.2208,-1.5792 L 15.376383,9.6765827 c 0.3935,-0.3935 1.0429,-0.3693 1.5792,-0.2208 1.0132,0.2803 2.3087,-0.1047 3.0519,-0.84793 0.9837,-0.98373 0.9837,-2.57866 0,-3.56239 -0.9837,-0.98373 -2.5787,-0.98372 -3.5624,0 0.9837,-0.98372 0.9837,-2.57866 0,-3.56239 -0.9837,-0.98371998 -2.5786,-0.98371998 -3.5624,0 z"
     stroke="#1C274C"
     stroke-width="1.5"
     stroke-linecap="round"
     stroke-linejoin="round"
     id="path2"
     style="stroke:#ffffff;stroke-opacity:1"
     inkscape:export-filename="/home/chris/ownCloud/Private/pnp/DSAprobes/res/KO_icon.png"
     inkscape:export-xdpi="96"
     inkscape:export-ydpi="96" />
  <path
     d="m 8.9776827,8.9776827 v 2.1213003 l 2.1213003,-0.7071 v 1.4142 l 2.6462,-0.5607"
     stroke="#1C274C"
     stroke-width="1.5"
     stroke-linecap="round"
     stroke-linejoin="round"
     id="path4"
     style="stroke:#ffffff;stroke-opacity:1"
     inkscape:export-filename="/home/chris/ownCloud/Private/pnp/DSAprobes/res/KO_icon.png"
     inkscape:export-xdpi="96"
     inkscape:export-ydpi="96" />
</svg>
