<?xml version="1.0" encoding="UTF-8" standalone="no"?>
<!-- Uploaded to: SVG Repo, www.svgrepo.com, Generator: SVG Repo Mixer Tools -->

<svg
   fill="#000000"
   height="800px"
   width="800px"
   version="1.1"
   id="Layer_1"
   viewBox="0 0 512 512"
   xml:space="preserve"
   sodipodi:docname="patch_icon.svg"
   inkscape:version="1.2.2 (b0a8486541, 2022-12-01)"
   inkscape:export-filename="patch_icon.png"
   inkscape:export-xdpi="96"
   inkscape:export-ydpi="96"
   xmlns:inkscape="http://www.inkscape.org/namespaces/inkscape"
   xmlns:sodipodi="http://sodipodi.sourceforge.net/DTD/sodipodi-0.dtd"
   xmlns="http://www.w3.org/2000/svg"
   xmlns:svg="http://www.w3.org/2000/svg"><defs
   id="defs65" /><sodipodi:namedview
   id="namedview63"
   pagecolor="#ffffff"
   bordercolor="#000000"
   borderopacity="0.25"
   inkscape:showpageshadow="2"
   inkscape:pageopacity="0.0"
   inkscape:pagecheckerboard="0"
   inkscape:deskcolor="#d1d1d1"
   showgrid="false"
   inkscape:zoom="0.90774833"
   inkscape:cx="369.04502"
   inkscape:cy="388.8743"
   inkscape:window-width="1920"
   inkscape:window-height="1037"
   inkscape:window-x="2560"
   inkscape:window-y="0"
   inkscape:window-maximized="1"
   inkscape:current-layer="Layer_1" />
<g
   id="g6"
   style="fill:#ffffff;fill-opacity:1">
	<g
   id="g4"
   style="fill:#ffffff;fill-opacity:1">
		<path
   d="M371.2,308.364c-4.655-4.655-11.636-4.655-16.291,0L205.964,457.309c-41.891,41.891-109.382,41.891-151.273,0    c-41.891-41.891-41.891-109.382,0-151.273l53.527-53.527l128,128c4.655,4.655,11.636,4.655,16.291,0    c4.655-4.655,4.655-11.636,0-16.291L116.364,228.073c-4.655-4.655-11.636-4.655-16.291,0L38.4,289.745    c-51.2,51.2-51.2,133.818,0,183.855C64,499.2,96.582,512,130.327,512c33.745,0,66.327-12.8,91.927-38.4L371.2,324.655    C375.855,320,375.855,313.018,371.2,308.364z"
   id="path2"
   style="fill:#ffffff;fill-opacity:1" />
	</g>
</g>
<g
   id="g12"
   style="fill:#ffffff;fill-opacity:1">
	<g
   id="g10"
   style="fill:#ffffff;fill-opacity:1">
		<circle
   cx="232.727"
   cy="232.727"
   r="11.636"
   id="circle8"
   style="fill:#ffffff;fill-opacity:1" />
	</g>
</g>
<g
   id="g18"
   style="fill:#ffffff;fill-opacity:1">
	<g
   id="g16"
   style="fill:#ffffff;fill-opacity:1">
		<circle
   cx="279.273"
   cy="279.273"
   r="11.636"
   id="circle14"
   style="fill:#ffffff;fill-opacity:1" />
	</g>
</g>
<g
   id="g24"
   style="fill:#ffffff;fill-opacity:1">
	<g
   id="g22"
   style="fill:#ffffff;fill-opacity:1">
		<circle
   cx="290.909"
   cy="221.091"
   r="11.636"
   id="circle20"
   style="fill:#ffffff;fill-opacity:1" />
	</g>
</g>
<g
   id="g30"
   style="fill:#ffffff;fill-opacity:1">
	<g
   id="g28"
   style="fill:#ffffff;fill-opacity:1">
		<circle
   cx="244.364"
   cy="174.545"
   r="11.636"
   id="circle26"
   style="fill:#ffffff;fill-opacity:1" />
	</g>
</g>
<g
   id="g36"
   style="fill:#ffffff;fill-opacity:1">
	<g
   id="g34"
   style="fill:#ffffff;fill-opacity:1">
		<circle
   cx="337.455"
   cy="267.636"
   r="11.636"
   id="circle32"
   style="fill:#ffffff;fill-opacity:1" />
	</g>
</g>
<g
   id="g42"
   style="fill:#ffffff;fill-opacity:1">
	<g
   id="g40"
   style="fill:#ffffff;fill-opacity:1">
		<circle
   cx="174.545"
   cy="244.364"
   r="11.636"
   id="circle38"
   style="fill:#ffffff;fill-opacity:1" />
	</g>
</g>
<g
   id="g48"
   style="fill:#ffffff;fill-opacity:1">
	<g
   id="g46"
   style="fill:#ffffff;fill-opacity:1">
		<circle
   cx="267.636"
   cy="337.455"
   r="11.636"
   id="circle44"
   style="fill:#ffffff;fill-opacity:1" />
	</g>
</g>
<g
   id="g54"
   style="fill:#ffffff;fill-opacity:1">
	<g
   id="g52"
   style="fill:#ffffff;fill-opacity:1">
		<circle
   cx="221.091"
   cy="290.909"
   r="11.636"
   id="circle50"
   style="fill:#ffffff;fill-opacity:1" />
	</g>
</g>
<g
   id="g60"
   style="fill:#ffffff;fill-opacity:1">
	<g
   id="g58"
   style="fill:#ffffff;fill-opacity:1">
		<path
   d="M473.6,38.4c-51.2-51.2-133.818-51.2-183.855,0L140.8,187.345c-4.655,4.655-4.655,11.636,0,16.291s11.636,4.655,16.291,0    L306.036,54.691c41.891-41.891,109.382-41.891,151.273,0c41.891,41.891,41.891,109.382,0,151.273l-53.527,53.527l-128-128    c-4.655-4.655-11.636-4.655-16.291,0c-4.655,4.655-4.655,11.636,0,16.291l136.145,136.145c2.327,2.327,5.818,3.491,8.146,3.491    c3.491,0,5.818-1.164,8.145-3.491l61.673-61.673C524.8,171.055,524.8,88.436,473.6,38.4z"
   id="path56"
   style="fill:#ffffff;fill-opacity:1" />
	</g>
</g>
</svg>
