<?xml version="1.0" encoding="UTF-8" standalone="no"?>
<!-- Uploaded to: SVG Repo, www.svgrepo.com, Generator: SVG Repo Mixer Tools -->

<svg
   width="800px"
   height="800px"
   viewBox="0 0 16 16"
   version="1.1"
   id="svg4"
   sodipodi:docname="sword_icon.svg"
   inkscape:export-filename="sword_icon.png"
   inkscape:export-xdpi="96"
   inkscape:export-ydpi="96"
   inkscape:version="1.2.2 (b0a8486541, 2022-12-01)"
   xmlns:inkscape="http://www.inkscape.org/namespaces/inkscape"
   xmlns:sodipodi="http://sodipodi.sourceforge.net/DTD/sodipodi-0.dtd"
   xmlns="http://www.w3.org/2000/svg"
   xmlns:svg="http://www.w3.org/2000/svg">
  <defs
     id="defs8" />
  <sodipodi:namedview
     id="namedview6"
     pagecolor="#ffffff"
     bordercolor="#000000"
     borderopacity="0.25"
     inkscape:showpageshadow="2"
     inkscape:pageopacity="0.0"
     inkscape:pagecheckerboard="0"
     inkscape:deskcolor="#d1d1d1"
     showgrid="false"
     inkscape:zoom="0.90774833"
     inkscape:cx="299.64252"
     inkscape:cy="371.24827"
     inkscape:window-width="1920"
     inkscape:window-height="1037"
     inkscape:window-x="2560"
     inkscape:window-y="0"
     inkscape:window-maximized="1"
     inkscape:current-layer="svg4" />
  <path
     fill="#444"
     d="M15.8 0.5l-0.1-0.2-0.2-0.1c-0.1 0-2.5-0.8-4.2 0.9l-6.7 6.6c-0.9-0.6-1.7-1.2-1.8-1l-0.4 0.3c-0.2 0.2 0.9 1.7 1.8 2.7l-2.5 3.4c-0.3-0.3-0.8-0.3-1.1 0l-0.3 0.3c-0.3 0.3-0.3 0.8 0 1.1l1 1c0.3 0.3 0.8 0.3 1.1 0l0.3-0.3c0.3-0.3 0.3-0.8 0-1.1v0l3.5-2.5c1 0.9 2.5 2 2.7 1.8l0.4-0.4c0.1-0.1-0.4-1-1.1-1.8l6.7-6.7c1.7-1.5 0.9-3.9 0.9-4zM7.7 10.5l-0.8-0.8 6.2-6.9-6.9 6.2-0.7-0.7 6.5-6.5c1-1 2.3-0.8 2.9-0.7 0.1 0.6 0.3 1.9-0.7 2.8l-6.5 6.6z"
     id="path2"
     style="fill:#ffffff;fill-opacity:1" />
</svg>
